<!DOCTYPE svg PUBLIC "-//W3C//DTD SVG 1.1//EN" "http://www.w3.org/Graphics/SVG/1.1/DTD/svg11.dtd">

<!-- Uploaded to: SVG Repo, www.svgrepo.com, Transformed by: SVG Repo Mixer Tools -->
<svg fill="#087f5b" width="800px" height="800px" viewBox="-2.4 -2.4 28.80 28.80" id="Layer_1" data-name="Layer 1" xmlns="http://www.w3.org/2000/svg" stroke="#087f5b">

<g id="SVGRepo_bgCarrier" stroke-width="0"/>

<g id="SVGRepo_tracerCarrier" stroke-linecap="round" stroke-linejoin="round"/>

<g id="SVGRepo_iconCarrier">

<path d="M20.485,3.515a11.994,11.994,0,1,0,0,16.97A12.013,12.013,0,0,0,20.485,3.515Zm1.449,7.417a7.964,7.964,0,0,1-8.865-8.866,9.961,9.961,0,0,1,8.865,8.866ZM2.066,13.068a7.964,7.964,0,0,1,8.865,8.866,9.961,9.961,0,0,1-8.865-8.866Zm17.005,6a9.947,9.947,0,0,1-6.127,2.879,9.971,9.971,0,0,0-10.9-10.894A9.979,9.979,0,0,1,11.056,2.05,9.986,9.986,0,0,0,21,13c.317,0,.635-.016.953-.046A9.951,9.951,0,0,1,19.071,19.071Z"/>

</g>

</svg>